<svg xmlns="http://www.w3.org/2000/svg" viewBox="0 0 912.601 747.682">
  <defs>
    <style>
      .self-smart {
        fill: #f2ad45;
      }

      .self-smart, .people-smart, .body-smart, .logical-smart, .picture-smart, .music-smart, .word-smart {
        stroke: #fff;
        stroke-width: 5px;
      }

      .people-smart {
        fill: #977ce0;
      }

      .body-smart {
        fill: #fe7db6;
      }

      .logical-smart {
        fill: #57d1ff;
      }

      .picture-smart {
        fill: #f77;
      }

      .medulla {
        fill: #c1946b;
      }

      .music-smart {
        fill: #92d55e;
      }

      .word-smart {
        fill: #e7cb10;
      }
    </style>
  </defs>
  <g id="brain" transform="translate(-14379.367 -6696.478)">
    <path id="Path_3" data-name="Path 3" class="self-smart" d="M11252.862,8011.474c-90.124-15.1-192.813-50.416-217.843-143.83-14.748-29.155,3.355-80.894,15.943-94.32,134.263-55.888,331.925,85.72,331.925,85.72s-40.4,15.985-87.229,93.019C11284.582,7977.236,11284.078,8010.97,11252.862,8011.474Z" transform="translate(3356.999 -780.041)"/>
    <path id="Path_4" data-name="Path 4" class="people-smart" d="M11543.8,6320.7c.84,2.518-193.173-138.627-331.8-88.11,10.048-37.5-5.149-88.883,88.277-142.823,32.56-59.579,66.395-90.162,120.419-89.789,44.111,9,69.755,80.183,105.732,143.495,114.544,6.293,93.146,104.474,93.146,104.474S11566.822,6284.907,11543.8,6320.7Z" transform="translate(3197.473 758.68)"/>
    <path id="Path_5" data-name="Path 5" class="body-smart" d="M12926.2,5573.021c103.215,16.783,104.054-22.657,179.577-8.392s99.117,7.115,114.292,33.4c-5.559,15.467-40.279,32.727-45.313,109.76s-60.754,32.962-109.258,52.363c-53.543,30.914-44.475,52.027-88.11,103.216,0-36.422-1.51-96.167-94.656-103.216-40.782-77.034-73.509-148.529-118.823-144C12762.847,5615.618,12822.98,5556.237,12926.2,5573.021Z" transform="translate(1840.922 1142)"/>
    <path id="Path_6" data-name="Path 6" class="logical-smart" d="M15802.712,5844s-24.8,32.223-35.233,54.724c-11.213,33.638-9.7,70.393-14.99,82.225-9.063,16.867-14.349,17.875-34.488,22.154,13.206,3.463,13.677,27.523,13.677,37.594,40.28,16.783,63.776,41.957,107.412,45.314,17.623,31.048,12.559,68.782,20.979,77.2,33.031-21.895,113.895-75.676,140.6-109.243.838-15.944-21.741-86.127-75.144-108.1S15802.712,5844,15802.712,5844Z" transform="translate(-741.347 895.02)"/>
    <path id="Path_7" data-name="Path 7" class="picture-smart" d="M16676.5,7624.812s117.557-77.793,135.943-105.027-7.553,97.341,12.586,120.837,26.854,110.265,0,154.74c-32.557,36.754-173.031-19.636-173.031-19.636s22.152-23.664,3.021-91.132C16649.48,7645.321,16676.5,7624.812,16676.5,7624.812Z" transform="translate(-1557.782 -566.446)"/>
    <path id="Path_11" data-name="Path 11" class="medulla" d="M14324.573,10036.806s46.2-54.537,112.739-53.215c51.355,24.168,84.922,118.656,89.117,165.647-14.266,19.3-36.084,8.393-36.084,8.393s-14.014-76.615-60.838-102.8C14375,10033.133,14357.3,10088.667,14324.573,10036.806Z" transform="translate(1824.674 -4411.132) rotate(7)"/>
    <path id="Path_8" data-name="Path 8" class="body-smart" d="M15246.76,9627.312s85.667,3.667,166.426-51.312c61.574,22.312,131.907,45.979,171.187,22.159-4.028,43.3-57.612,108.652-219.612,120.152-45,.5-49.5-25-65.5-33C15241.76,9677.812,15247.593,9650.145,15246.76,9627.312Z" transform="translate(-318.465 -2367.225)"/>
    <path id="Path_9" data-name="Path 9" class="music-smart" d="M13024.752,8396.928s-20.475,21.227-29.537,30.792c-20.141,11.581-41.789,20.644-85.594,92.139-7.822,13.438-10.877,31.115-17.621,46.825,32.979,76.781,125.871,108.081,167.158,88.277s40.615-43.467,134.432-46.488,158.094-51.859,158.094-51.859-91.129-87.1-207.771-71.16S13024.752,8396.928,13024.752,8396.928Z" transform="translate(1744.043 -1348.341)"/>
    <path id="Path_10" data-name="Path 10" class="word-smart" d="M14383.766,7394.643c30.593-34.756-22.426-111.043,23.345-149.186-4.578-10.3-8.01-59.122-21.358-77.049-38.526-3.814-89.639-40.051-106.421-45.009-.381-14.494-1.6-35.9-15.395-37.395-110.859-25.16-126.879,83.93-157.394,106.052a390.04,390.04,0,0,0-50.548,43.484s-1.509,111.271,140.475,87.1C14309.845,7325.177,14359.813,7378.959,14383.766,7394.643Z" transform="translate(711.458 -187.378)"/>
  </g>
</svg>
